<svg id="Layer_3" height="512" viewBox="0 0 32 32" width="512" xmlns="http://www.w3.org/2000/svg" xmlns:xlink="http://www.w3.org/1999/xlink" data-name="Layer 3"><linearGradient id="linear-gradient" gradientUnits="userSpaceOnUse" x1=".425" x2="27.829" y1="35.124" y2="1.475"><stop offset="0" stop-color="#00e0a5"/><stop offset="1" stop-color="#00aed5"/></linearGradient><path d="m24.985 1h-17.97a3.019 3.019 0 0 0 -3.015 3.015v23.97a3.019 3.019 0 0 0 3.015 3.015h17.97a3.019 3.019 0 0 0 3.015-3.015v-23.97a3.019 3.019 0 0 0 -3.015-3.015zm-10.278 21.707-3 3a1 1 0 0 1 -1.414 0l-2-2a1 1 0 0 1 1.414-1.414l1.293 1.293 2.293-2.293a1 1 0 0 1 1.414 1.414zm0-7.5-3 3a1 1 0 0 1 -1.414 0l-2-2a1 1 0 0 1 1.414-1.414l1.293 1.293 2.293-2.293a1 1 0 0 1 1.414 1.414zm0-7.5-3 3a1 1 0 0 1 -1.414 0l-2-2a1 1 0 1 1 1.414-1.414l1.293 1.293 2.293-2.293a1 1 0 1 1 1.414 1.414zm8.293 18.293h-5a1 1 0 0 1 0-2h5a1 1 0 0 1 0 2zm0-3h-5a1 1 0 0 1 0-2h5a1 1 0 0 1 0 2zm0-4.5h-5a1 1 0 0 1 0-2h5a1 1 0 0 1 0 2zm0-3h-5a1 1 0 0 1 0-2h5a1 1 0 0 1 0 2zm0-4.5h-5a1 1 0 0 1 0-2h5a1 1 0 0 1 0 2zm0-3h-5a1 1 0 0 1 0-2h5a1 1 0 0 1 0 2z" fill="url(#linear-gradient)"/></svg>