<svg height="512" viewBox="0 0 32 32" width="512" xmlns="http://www.w3.org/2000/svg" xmlns:xlink="http://www.w3.org/1999/xlink"><linearGradient id="linear-gradient" gradientUnits="userSpaceOnUse" x1="1" x2="31" y1="16" y2="16"><stop offset="0" stop-color="#00ed95"/><stop offset="1" stop-color="#00aaef"/></linearGradient><g id="Layer_3" data-name="Layer 3"><path d="m16 1a15 15 0 1 0 15 15 15.017 15.017 0 0 0 -15-15zm7 21.6h-14a1 1 0 0 1 0-2h14a1 1 0 0 1 0 2zm0-5.6h-14a1 1 0 0 1 0-2h14a1 1 0 0 1 0 2zm0-5.6h-14a1 1 0 0 1 0-2h14a1 1 0 0 1 0 2z" fill="url(#linear-gradient)"/></g></svg>