<svg id="Layer_2" height="512" viewBox="0 0 24 24" width="512" xmlns="http://www.w3.org/2000/svg" xmlns:xlink="http://www.w3.org/1999/xlink" data-name="Layer 2"><linearGradient id="linear-gradient" gradientUnits="userSpaceOnUse" x1="1.61" x2="21.521" y1="26.307" y2="4.893"><stop offset="0" stop-color="#1ba0db"/><stop offset="1" stop-color="#57bf99"/></linearGradient><path d="m20 9h-12v-2a4 4 0 0 1 7.92-.8 1 1 0 1 0 1.96-.4 6 6 0 0 0 -11.88 1.2v2h-2a1 1 0 0 0 -1 1v12a1 1 0 0 0 1 1h16a1 1 0 0 0 1-1v-12a1 1 0 0 0 -1-1zm-8 10a3 3 0 1 1 3-3 3 3 0 0 1 -3 3z" fill="url(#linear-gradient)"/></svg>