<svg id="Layer_1" data-name="Layer 1" xmlns="http://www.w3.org/2000/svg" xmlns:xlink="http://www.w3.org/1999/xlink" viewBox="0 0 1601 720"><defs><style>.cls-1{fill:#00bcae;}.cls-2{fill:url(#linear-gradient);}.cls-3{fill:#044e5b;}.cls-4{fill:url(#linear-gradient-2);}.cls-5{fill:url(#linear-gradient-3);}.cls-6{fill:url(#linear-gradient-4);}.cls-7{fill:url(#linear-gradient-5);}.cls-8{fill:#d3d3d5;}.cls-9{font-size:56.39px;fill:#a7a9ab;font-family:OpenSans-Italic, Open Sans;font-style:italic;}</style><linearGradient id="linear-gradient" x1="115.08" y1="485.98" x2="382.65" y2="320.53" gradientUnits="userSpaceOnUse"><stop offset="0" stop-color="#16baae"/><stop offset="0.13" stop-color="#16baae"/><stop offset="0.56" stop-color="#23bbb6"/><stop offset="0.76" stop-color="#43c1e6"/><stop offset="0.82" stop-color="#43bbe6"/><stop offset="0.9" stop-color="#43abe6"/><stop offset="0.98" stop-color="#4397e6"/><stop offset="1" stop-color="#4397e6"/></linearGradient><linearGradient id="linear-gradient-2" x1="377.88" y1="650.98" x2="524.94" y2="311.92" xlink:href="#linear-gradient"/><linearGradient id="linear-gradient-3" x1="771.74" y1="555.73" x2="872.4" y2="298.08" gradientUnits="userSpaceOnUse"><stop offset="0" stop-color="#16baae"/><stop offset="0.36" stop-color="#16baae"/><stop offset="0.98" stop-color="#4397e6"/></linearGradient><linearGradient id="linear-gradient-4" x1="1106.17" y1="521.69" x2="1233.31" y2="204.58" xlink:href="#linear-gradient"/><linearGradient id="linear-gradient-5" x1="1257.2" y1="582.25" x2="1384.35" y2="265.14" gradientUnits="userSpaceOnUse"><stop offset="0" stop-color="#16baae"/><stop offset="0.13" stop-color="#16baae"/><stop offset="0.56" stop-color="#23bbb6"/><stop offset="0.86" stop-color="#43c1e6"/><stop offset="0.9" stop-color="#43bbe6"/><stop offset="0.94" stop-color="#43abe6"/><stop offset="0.98" stop-color="#4397e6"/><stop offset="1" stop-color="#4397e6"/></linearGradient></defs><path class="cls-1" d="M216.5,241.48l-43.31-.08-.08.06-20.25,15L107.75,290a7.12,7.12,0,0,0-2.71,5.2,4.86,4.86,0,0,0,2.08,4.38l30.74,22.38.17.13-20,86.23L92.75,517.78a7.16,7.16,0,0,0-.14,2.43,7,7,0,0,0,5,5.88,6.67,6.67,0,0,0,2.06.31l10.89-.22,26.19-.54a18.12,18.12,0,0,0,12.08-5l.45-.46.52-.54c.2-.22.38-.45.57-.68a18,18,0,0,0,3.62-7.34L172.85,430l29.46-127.27,14.18-61.25Z"/><path class="cls-2" d="M292.68,299.89c.6.08,1.18.18,1.75.31,8.22,1.85,13.05,9.51,11.11,18.66l-5.47,25.72h.05c-.57,0-3.54,15.66-3.88,17.13-8,35.14-16.09,70.25-24.05,105.4-4.53,20-6.37,52.12,17.06,58a33.48,33.48,0,0,0,8.08.92h28.49c4.12,0,3.94-3.16,3.15-5.11-2.29-5.79-4.44-15.54-3.51-23.34a60.79,60.79,0,0,1,1.23-6.06L330.23,476q2.38-10.49,4.78-21l4.86-21.31q1.89-8.26,3.77-16.52c.51-2.2,1-4.4,1.51-6.6L360,344.56h.07l1-4.61,2.58-11.43-.11-.18,2-9.5c7.68-36.12-10.49-66.31-42.08-74.87a72.05,72.05,0,0,0-18.77-2.41l-71.24-.06L220,299.86h14.13"/><path class="cls-3" d="M149.76,519.67l-.52.54Z"/><path class="cls-4" d="M542.7,244.72H507.42c-90.54,0-107.48,60.87-116.31,102.48l-14,63.55-.28,1.58c-16.56,89.16,30.28,102.5,54.25,108.93,35.93,9.66,114.45-14.54,131.21-22.15l4.31-1.92c6.56-2.88,3.34-8.8-.47-8.09-1.18.23-9.77,1.94-20.85,3.61-53.41,8-113.65,8.31-120.28-22.95-1.26-6-.13-13.87,2.72-22.61,3.53-10.85,4-19.35,20.29-24.06l96-23.38c43.34-11.15,50.74-47.62,50.74-47.62l7.13-32.25C610.76,278.24,584.31,244.72,542.7,244.72Zm.82,75.12s-3.11,14.88-3.57,16.88c-2.76,10.58-17.39,14.09-17.39,14.09l0,0-77,18.49,6.2-28.9c5.31-19.2,17.52-38.94,46.35-38.94l33.11,0C540.1,302.6,545.52,310.4,543.52,319.84Z"/><path class="cls-5" d="M1105.33,257.71l-10.71,46.89-2.08,9.07L1068.39,419.3l-.4.79-5.28,24.75c-8.84,41.61-49.73,75.34-91.33,75.34H949.06s-49.22,0-49.22,0c-26.41,0-53.77-22-45-61.27l9.55-42.69c.06-1.07-.15-2.29-1.66-2.13-3.73.41-31.4,8.9-40.79,14.72l-3.21,16c-8.86,41.61-49.75,75.34-91.35,75.34H705.1s-61.4,0-61.4,0c-15.5,0-28-4.26-33.85-15.66v-.05l0-.07c-1.4-3.51-2.93-6.3,1.63-7.81,31.82-10.49,107.86-37.68,109.81-38.36,0,0,3.39-1.29,4.78-.34,2.93,2-2.16,5.3,5.21,5.49.06,0,.08,0,.14,0h7.18c8.83-.13,18.66-6.55,21-14.79.21-.91,1-4.34,1.95-8.65l5.29-23.53c10.38-45.85,25.29-111.95,25.29-111.95a4.22,4.22,0,0,0-3.69-4.17h-78a8.73,8.73,0,0,0-2,.13,5.36,5.36,0,0,0-4.05,3.75s-27.61,117.9-34.82,149.53c-.49,2.36.35,3.34,1.8,4.56,1,.87,2.17,1.24,5.16.74,2.6-.42,3.54,2.81.35,3.86,0,0-56.4,17.15-57.75,17.41-4,.78-14.12.47-11-12.66.09-.37,70.1-306.34,70.1-306.34,0-.2.12-.39.17-.59l1.41-6.17a9.91,9.91,0,0,1,9.15-7.43h36.34c7.83,0,12.71,6.36,10.9,14.19l-18.56,82.23h87.82c26.42,0,53.77,22,45,61.27L825,416.09l0,.08c2.44-1,6.14-2.41,10.38-4.06q16.38-6.3,33-12.74v0l9.77-43.57,22.36-98.05c.07-.29.16-.58.24-.86l1.35-5.92a9.92,9.92,0,0,1,9.15-7.43h36.32c7.84,0,12.71,6.37,10.91,14.2,0,0-12.23,54.38-24,106.65-.77,3.39-1.53,6.78-2.28,10.13-10,44.47-19,84.69-19,84.69a4.24,4.24,0,0,0,3.67,4.21H982.5c8.74-.13,17.3-6.29,20.88-14.47,1.51-6.52,3.62-15.69,6.1-26.52l1.29-6h.09c5.12-22.27,7.41-32.59,13.44-58.79,1-4,4.49-8.1,8.48-10.78l2-1.35,8.65-6.81c3.87-3,3.55-7.95-1.94-6.12h0c-6.23,2.35-12.72,4.82-19.77,7.51l-1.87.69c-1.7.52-4.3-2.54-2.05-4.08,0,0,9.7-8,11-9,2.65-2.08,3.07-3.54,3.83-6.29L1041,285l7.7-34.1a9.93,9.93,0,0,1,9.15-7.43h36.54C1102.26,243.51,1107.14,249.88,1105.33,257.71Z"/><path class="cls-6" d="M1159.77,295.91c1.8-.29,29.1-3.68,34.66-2.15,2.24.62,4.76,2.55,3.56,8.57-9.18,40.73-18.23,80.88-24.88,110.36l-.3,1.3c-.33,1.49-.66,3-1,4.39-.27,1.14-.52,2.26-.77,3.36-.29,1.31-.58,2.59-.86,3.84-.52,2.32-1,4.53-1.5,6.66s-.92,4.08-1.34,6l-.56,2.48s0,.05,0,.06c-.18.82-.36,1.62-.54,2.39-.28,1.27-.55,2.47-.8,3.61-.2.84-.38,1.64-.55,2.4s-.37,1.65-.54,2.39c-.13.56-.24,1.09-.35,1.59-.26,1.12-.48,2.1-.66,2.93-.29,1.24-.49,2.13-.6,2.63,0,.14,0,.25-.07.33l0,.17a4.77,4.77,0,0,0,.06.76c0,.1.06.21.09.31a2.72,2.72,0,0,0,.11.38,3.62,3.62,0,0,0,.2.45c0,.06.06.12.1.19a3.45,3.45,0,0,0,.35.5l0,.07a4.31,4.31,0,0,0,2.35,1.44h29.21c4.11,0,6.67,3.33,5.72,7.43l-2.16,9.36c0,.07,0,.14,0,.23l-5.31,23c-2.17,9.39-11.55,17-20.94,17h-20.14a15.91,15.91,0,0,1-2-.12h-12.93c-26.4,0-44.09-12.24-35.27-51.47l25.47-112.93,7.56-33.23,5.89-25.87L1161.67,206l10.18-44.76c0-.2.11-.37.15-.55l1.42-6.21a9.92,9.92,0,0,1,9.15-7.43h36.35c7.82,0,12.71,6.36,10.91,14.19l0,.2a.84.84,0,0,1,0,.2c0,.15-.06.32-.11.54s-.1.43-.15.69-.08.32-.12.49c-2.43,10.84-13.8,61.36-25.44,112.94l-45,14.56C1155.22,292.49,1157.67,296.23,1159.77,295.91Z"/><path class="cls-7" d="M1398.48,247.32c-35.93-9.66-114.45,14.54-131.21,22.16L1263,271.4c-6.56,2.88-3.34,8.78.47,8.08,1.18-.22,9.77-2,20.85-3.6,53.41-8,113.65-8.31,120.28,22.94,1.26,6,.13,13.87-2.71,22.61-3.55,10.85-4,19.33-20.3,24.05l-96,23.4c-43.34,11.14-50.73,47.61-50.73,47.61l-7.13,32.24c-8.85,41.61,17.6,75.12,59.21,75.12h35.28c90.55,0,107.48-60.86,116.32-102.47l14-63.56.27-1.58C1469.29,267.08,1422.45,253.75,1398.48,247.32Zm-20.64,180.84c-5.31,19.2-17.51,38.94-46.35,38.94l-33.11,0c-8.89-1.15-14.32-8.95-12.32-18.4,0,0,3.12-14.86,3.57-16.86,2.76-10.59,17.38-14.11,17.38-14.11h0l77-18.49Z"/><path class="cls-8" d="M1517.4,260.51c0-4.67-3.91-7.57-9.46-7.57h-11.25v25.12h3.73v-9.49h6.43l7.23,9.49h4.61L1510.93,268C1514.7,267.09,1517.4,264.64,1517.4,260.51Zm-17,4.75v-8.92h7.39c3.58,0,5.75,1.61,5.75,4.4s-2.44,4.52-6,4.52Z"/><path class="cls-8" d="M1506.39,240.23a26,26,0,1,0,25.9,25.91A26.07,26.07,0,0,0,1506.39,240.23Zm-.15,48.37a22.4,22.4,0,1,1,22.34-22.46A22,22,0,0,1,1506.24,288.6Z"/><text class="cls-9" transform="translate(84.08 618.33)">A SMARTER WAY</text></svg>