<svg id="Capa_1" enable-background="new 0 0 441.459 441.459" height="512" viewBox="0 0 441.459 441.459" width="512" xmlns="http://www.w3.org/2000/svg" xmlns:xlink="http://www.w3.org/1999/xlink"><linearGradient id="SVGID_1_" gradientTransform="matrix(16 0 0 -16 1294.91 9675.02)" gradientUnits="userSpaceOnUse" x1="-85.304" x2="-56.246" y1="576.271" y2="599.658"><stop offset="0" stop-color="#00a1e2"/><stop offset="1" stop-color="#00e0a5"/></linearGradient><g><g id="Layer_3_15_"><path d="m424.479 0h-407.5c-9.377 0-16.979 7.602-16.979 16.979v407.5c0 9.377 7.602 16.979 16.979 16.979h407.5c9.377 0 16.979-7.602 16.979-16.979v-407.5c.001-9.377-7.601-16.979-16.979-16.979zm-203.75 305.625h-101.875c-9.377 0-16.979-7.602-16.979-16.979s7.602-16.979 16.979-16.979h101.875c9.377 0 16.979 7.602 16.979 16.979s-7.601 16.979-16.979 16.979zm101.875-135.833h-203.75c-9.377 0-16.979-7.602-16.979-16.979s7.602-16.979 16.979-16.979h203.75c9.377 0 16.979 7.602 16.979 16.979s-7.601 16.979-16.979 16.979z" fill="url(#SVGID_1_)"/></g></g></svg>