<svg height="512" viewBox="0 0 32 32" width="512" xmlns="http://www.w3.org/2000/svg" xmlns:xlink="http://www.w3.org/1999/xlink"><linearGradient id="linear-gradient" gradientUnits="userSpaceOnUse" x1="10.35" x2="21.65" y1="15.549" y2="15.549"><stop offset="0" stop-color="#00ed95"/><stop offset="1" stop-color="#00aaef"/></linearGradient><linearGradient id="linear-gradient-2" x1=".893" x2="31.107" xlink:href="#linear-gradient" y1="16" y2="16"/><g id="Layer_2" data-name="Layer 2"><path d="m10.35 22.647 5.156-4.511a.749.749 0 0 1 .988 0l5.156 4.511v-14.197h-11.3z" fill="url(#linear-gradient)"/><path d="m16 .893a15.107 15.107 0 1 0 15.107 15.107 15.107 15.107 0 0 0 -15.107-15.107zm7.15 23.407a.75.75 0 0 1 -1.244.564l-5.906-5.164-5.906 5.167a.75.75 0 0 1 -1.244-.567v-16.6a.75.75 0 0 1 .75-.75h12.8a.75.75 0 0 1 .75.75z" fill="url(#linear-gradient-2)"/></g></svg>