<svg height="512" viewBox="0 0 32 32" width="512" xmlns="http://www.w3.org/2000/svg" xmlns:xlink="http://www.w3.org/1999/xlink"><linearGradient id="linear-gradient" gradientUnits="userSpaceOnUse" x1=".893" x2="31.107" y1="16" y2="16"><stop offset="0" stop-color="#00ed95"/><stop offset="1" stop-color="#00aaef"/></linearGradient><linearGradient id="linear-gradient-2" x1="8.75" x2="20.05" xlink:href="#linear-gradient" y1="14.4" y2="14.4"/><g id="Layer_2" data-name="Layer 2"><path d="m16 .893a15.107 15.107 0 1 0 15.107 15.107 15.107 15.107 0 0 0 -15.107-15.107zm8.53 23.637a.748.748 0 0 1 -1.06 0l-4.577-4.576a7.165 7.165 0 1 1 1.061-1.061l4.576 4.577a.749.749 0 0 1 0 1.06z" fill="url(#linear-gradient)"/><path d="m14.4 8.75a5.65 5.65 0 1 0 5.65 5.65 5.657 5.657 0 0 0 -5.65-5.65z" fill="url(#linear-gradient-2)"/></g></svg>