<svg id="Layer_2" height="512" viewBox="0 0 34 34" width="512" xmlns="http://www.w3.org/2000/svg" xmlns:xlink="http://www.w3.org/1999/xlink" data-name="Layer 2"><linearGradient id="linear-gradient" gradientUnits="userSpaceOnUse" x1="1.632" x2="27.364" y1="31.498" y2="7.222"><stop offset="0" stop-color="#00b1d3"/><stop offset="1" stop-color="#56bf98"/></linearGradient><linearGradient id="linear-gradient-2" x1="1.757" x2="27.489" xlink:href="#linear-gradient" y1="31.63" y2="7.354"/><path d="m17 1.5a15.5 15.5 0 1 0 15.5 15.5 15.517 15.517 0 0 0 -15.5-15.5zm8.469 7.673-7 19a.5.5 0 0 1 -.441.326h-.028a.5.5 0 0 1 -.447-.276l-3-6a.5.5 0 0 1 0-.448l2.329-4.658-4.658 2.329a.5.5 0 0 1 -.448 0l-6-3a.5.5 0 0 1 .051-.916l19-7a.5.5 0 0 1 .642.642z" fill="url(#linear-gradient)"/><path d="m12 18.441 5.776-2.888a.5.5 0 0 1 .671.671l-2.888 5.776 2.371 4.743 6.226-16.9-16.899 6.227z" fill="url(#linear-gradient-2)"/></svg>