<svg id="Layer_1" enable-background="new 0 0 512 512" height="512" viewBox="0 0 512 512" width="512" xmlns="http://www.w3.org/2000/svg" xmlns:xlink="http://www.w3.org/1999/xlink"><linearGradient id="SVGID_1_" gradientUnits="userSpaceOnUse" x1="256" x2="256" y1="512" y2="0"><stop offset="0" stop-color="#009efb"/><stop offset="1" stop-color="#68c185"/></linearGradient><path clip-rule="evenodd" d="m256 0c141.385 0 256 114.615 256 256s-114.615 256-256 256-256-114.615-256-256 114.615-256 256-256zm0 184.6c-39.433 0-71.4 31.967-71.4 71.4s31.967 71.4 71.4 71.4 71.4-31.967 71.4-71.4-31.967-71.4-71.4-71.4zm30.739-59.751v-43.849h-61.479v43.849c-14.45 3.376-28.005 9.078-40.249 16.689l-31.018-31.019-43.473 43.473 31.019 31.018c-7.611 12.246-13.316 25.798-16.69 40.249h-43.849v61.479h43.849c3.376 14.45 9.078 28.005 16.69 40.249l-31.019 31.019 43.473 43.473 31.018-31.019c12.246 7.611 25.798 13.316 40.249 16.69v43.85h61.479v-43.849c14.45-3.376 28.004-9.079 40.249-16.69l31.019 31.019 43.473-43.473-31.019-31.019c7.611-12.244 13.315-25.799 16.69-40.249h43.849v-61.479h-43.849c-3.376-14.45-9.078-28.005-16.69-40.249l31.018-31.018-43.472-43.473-31.018 31.019c-12.246-7.611-25.799-13.316-40.25-16.69z" fill="url(#SVGID_1_)" fill-rule="evenodd"/></svg>