<svg height="512" viewBox="0 0 32 32" width="512" xmlns="http://www.w3.org/2000/svg" xmlns:xlink="http://www.w3.org/1999/xlink"><linearGradient id="linear-gradient" gradientUnits="userSpaceOnUse" x1=".893" x2="31.107" y1="16" y2="16"><stop offset="0" stop-color="#00ed95"/><stop offset="1" stop-color="#00aaef"/></linearGradient><linearGradient id="linear-gradient-2" x1="6.25" x2="25.75" xlink:href="#linear-gradient" y1="15.675" y2="15.675"/><g id="Layer_2" data-name="Layer 2"><path d="m16 .893a15.107 15.107 0 1 0 15.107 15.107 15.107 15.107 0 0 0 -15.107-15.107zm5.25 23.207h-3.85a.75.75 0 0 1 -.75-.75v-5.482a.75.75 0 0 1 .75-.75h1.047l-2.447-2.552-2.443 2.552h1.043a.75.75 0 0 1 .75.75v5.482a.75.75 0 0 1 -.75.75h-3.85a6.126 6.126 0 0 1 -6-6.232 6.151 6.151 0 0 1 5.514-6.212 6.047 6.047 0 0 1 5.736-4.406 6.047 6.047 0 0 1 5.736 4.406 6.151 6.151 0 0 1 5.514 6.212 6.126 6.126 0 0 1 -6 6.232z" fill="url(#linear-gradient)"/><path d="m21.271 13.136a.752.752 0 0 1 -.862-.6 4.573 4.573 0 0 0 -4.409-3.786 4.573 4.573 0 0 0 -4.409 3.788.752.752 0 0 1 -.862.6 4.629 4.629 0 0 0 -4.479 4.73 4.625 4.625 0 0 0 4.5 4.732h3.1v-3.982h-2.05a.75.75 0 0 1 -.542-1.268l4.2-4.387a.773.773 0 0 1 1.084 0l4.2 4.387a.75.75 0 0 1 -.542 1.268h-2.054v3.982h3.1a4.625 4.625 0 0 0 4.5-4.732 4.627 4.627 0 0 0 -4.475-4.732z" fill="url(#linear-gradient-2)"/></g></svg>